<?xml version="1.0" encoding="utf-8"?>
<!-- Generator: Adobe Illustrator 22.0.1, SVG Export Plug-In . SVG Version: 6.00 Build 0)  -->
<svg version="1.1" id="Слой_1" xmlns="http://www.w3.org/2000/svg" xmlns:xlink="http://www.w3.org/1999/xlink" x="0px" y="0px"
	 viewBox="0 0 792 612" style="enable-background:new 0 0 792 612;" xml:space="preserve">
<style type="text/css">
	.st0{fill:url(#SVGID_1_);}
	.st1{fill:url(#SVGID_2_);}
	.st2{fill:url(#SVGID_3_);}
	.st3{fill:url(#SVGID_4_);}
	.st4{fill:url(#SVGID_5_);}
	.st5{fill:url(#SVGID_6_);}
	.st6{fill:url(#SVGID_7_);}
	.st7{fill:url(#SVGID_8_);}
	.st8{fill:url(#SVGID_9_);}
	.st9{fill:url(#SVGID_10_);}
</style>
<g>
	
		<linearGradient id="SVGID_1_" gradientUnits="userSpaceOnUse" x1="431.7169" y1="-245.2401" x2="480.0386" y2="-245.2401" gradientTransform="matrix(1 0 0 1 0 385.1841)">
		<stop  offset="5.617999e-03" style="stop-color:#64C0ED"/>
		<stop  offset="1" style="stop-color:#ED6970"/>
	</linearGradient>
	<polygon class="st0" points="480,152.1 471.4,128.1 431.7,127.8 447.9,142.1 462.9,142.1 	"/>
	
		<linearGradient id="SVGID_2_" gradientUnits="userSpaceOnUse" x1="508.0312" y1="-244.6738" x2="526.7936" y2="-244.6738" gradientTransform="matrix(1 0 0 1 0 385.1841)">
		<stop  offset="5.617999e-03" style="stop-color:#64C0ED"/>
		<stop  offset="1" style="stop-color:#ED6970"/>
	</linearGradient>
	<path class="st1" d="M526.9,131.2c-6.2,0-12.5-0.2-18.7-0.2c6.2,6.4,12.5,12.6,18.7,19.1C526.9,143.8,526.9,137.6,526.9,131.2z"/>
	
		<linearGradient id="SVGID_3_" gradientUnits="userSpaceOnUse" x1="492.723" y1="-121.5101" x2="521.6028" y2="-121.5101" gradientTransform="matrix(1 0 0 1 0 385.1841)">
		<stop  offset="5.617999e-03" style="stop-color:#64C0ED"/>
		<stop  offset="1" style="stop-color:#ED6970"/>
	</linearGradient>
	<path class="st2" d="M506.7,273.3c4.9-6.4,10-12.8,14.9-19.1c-9.6,0-19.3-0.2-28.9-0.2C497.4,260.3,501.9,266.7,506.7,273.3z"/>
	
		<linearGradient id="SVGID_4_" gradientUnits="userSpaceOnUse" x1="249.5666" y1="-272.7986" x2="405.8571" y2="-272.7986" gradientTransform="matrix(1 0 0 1 0 385.1841)">
		<stop  offset="5.617999e-03" style="stop-color:#64C0ED"/>
		<stop  offset="1" style="stop-color:#ED6970"/>
	</linearGradient>
	<path class="st3" d="M405.9,102.3c-52.1,14.3-104.2,28.5-156.3,42.8c25.7-21.9,51.3-43.8,77.2-65.5c17.4,0,34.7,0,51.9,0
		C387.7,87.2,396.8,94.7,405.9,102.3z"/>
	
		<linearGradient id="SVGID_5_" gradientUnits="userSpaceOnUse" x1="202" y1="-116.3193" x2="384.5277" y2="-116.3193" gradientTransform="matrix(1 0 0 1 0 385.1841)">
		<stop  offset="5.617999e-03" style="stop-color:#64C0ED"/>
		<stop  offset="1" style="stop-color:#ED6970"/>
	</linearGradient>
	<path class="st4" d="M384.5,138.7c-43,12.1-86.1,24.2-129.1,36.2c-17.7,33.4-35.7,66.8-53.4,100c11.1-5.3,22.3-10.6,33.6-15.9
		c0.4,29.1,0.6,58.3,0.9,87.4c20,17.6,40.2,35.1,60.2,52.5c-6.2-35.9-12.5-71.9-18.5-107.8C313.6,240.6,349,189.7,384.5,138.7z"/>
	
		<linearGradient id="SVGID_6_" gradientUnits="userSpaceOnUse" x1="326.0131" y1="71.9655" x2="431.3393" y2="71.9655" gradientTransform="matrix(1 0 0 1 0 385.1841)">
		<stop  offset="5.617999e-03" style="stop-color:#64C0ED"/>
		<stop  offset="1" style="stop-color:#ED6970"/>
	</linearGradient>
	<path class="st5" d="M326,373.5c5.3,25.7,10.4,51.2,15.7,76.8c17.7,21.3,35.3,42.7,53,64.2c3.8,8.7,7.4,17.6,11.1,26.2
		c8.5-15.7,17-31.3,25.7-46.8C396.2,453.6,361.1,413.5,326,373.5z"/>
	
		<linearGradient id="SVGID_7_" gradientUnits="userSpaceOnUse" x1="320.1616" y1="-38.8346" x2="502.274" y2="-38.8346" gradientTransform="matrix(1 0 0 1 0 385.1841)">
		<stop  offset="5.617999e-03" style="stop-color:#64C0ED"/>
		<stop  offset="1" style="stop-color:#ED6970"/>
	</linearGradient>
	<path class="st6" d="M378.1,304.6c1.5-35.7,3-71.3,4.5-106.8c-20.8,35.7-41.7,71.4-62.5,106.8c45.9,51.7,91.7,103.2,137.8,155
		c5.1,11.7,10.2,23.6,15.5,35.3c9.6-17.2,19.3-34.4,29.1-51.7C460.8,396.9,419.4,350.9,378.1,304.6z"/>
	
		<linearGradient id="SVGID_8_" gradientUnits="userSpaceOnUse" x1="412.6524" y1="-65.8268" x2="547.6135" y2="-65.8268" gradientTransform="matrix(1 0 0 1 0 385.1841)">
		<stop  offset="5.617999e-03" style="stop-color:#64C0ED"/>
		<stop  offset="1" style="stop-color:#ED6970"/>
	</linearGradient>
	<path class="st7" d="M526.5,405.2c-35.5-37.2-71.2-74.4-106.6-111.6c-2.5-20-4.7-40-7.2-60.2c44.9,45.7,89.8,91.5,135,137.2
		C540.4,382.2,533.5,393.7,526.5,405.2z"/>
	
		<linearGradient id="SVGID_9_" gradientUnits="userSpaceOnUse" x1="372.2585" y1="-316.6845" x2="474.4513" y2="-316.6845" gradientTransform="matrix(1 0 0 1 0 385.1841)">
		<stop  offset="5.617999e-03" style="stop-color:#64C0ED"/>
		<stop  offset="1" style="stop-color:#ED6970"/>
	</linearGradient>
	<path class="st8" d="M474.4,86.6c-12.5,0.2-25.1,0.6-37.8,0.8c-21.5-10.6-43-21.1-64.6-31.7c19.1-2.1,38.3-4,57.4-6
		C444.6,61.9,459.5,74.4,474.4,86.6z"/>
	
		<linearGradient id="SVGID_10_" gradientUnits="userSpaceOnUse" x1="464.4662" y1="-178.0427" x2="545.4994" y2="-178.0427" gradientTransform="matrix(1 0 0 1 0 385.1841)">
		<stop  offset="5.617999e-03" style="stop-color:#64C0ED"/>
		<stop  offset="1" style="stop-color:#ED6970"/>
	</linearGradient>
	<path class="st9" d="M545.5,174.4c-12.6,0-25.5,0-38.1,0c5.1,5.3,10.2,10.4,15.1,15.7c0,5.9,0.2,11.7,0.2,17.7
		c-13.2,6.6-26.4,13.2-39.8,19.6c-6.2-2.6-12.3-5.3-18.5-7.7c4.5,6.8,9.1,13.4,13.6,20.2c15.3-5.7,30.4-11.3,45.7-17
		c5.7,4.5,11.3,9.1,16.8,13.6c0-6.2,0.2-12.5,0.2-18.5c-2.3-2.3-4.5-4.5-6.8-6.6c0.2-7,0.2-13.8,0.4-20.8c2.8-1.9,5.7-3.6,8.5-5.5
		C543.8,181.4,544.6,177.8,545.5,174.4z"/>
</g>
</svg>
